<?xml version="1.0" encoding="UTF-8"?>
<!DOCTYPE svg PUBLIC "-//W3C//DTD SVG 1.1//EN" "http://www.w3.org/Graphics/SVG/1.1/DTD/svg11.dtd">
<!-- Creator: CorelDRAW 2019 (64-Bit) -->
<svg xmlns="http://www.w3.org/2000/svg" xml:space="preserve" width="65px" height="52px" version="1.1" style="shape-rendering:geometricPrecision; text-rendering:geometricPrecision; image-rendering:optimizeQuality; fill-rule:evenodd; clip-rule:evenodd"
viewBox="0 0 65 52.55"
 xmlns:xlink="http://www.w3.org/1999/xlink"
 data-name="Layer 1">
 <defs>
  <style type="text/css">
   <![CDATA[
    .fil0 {fill:#095489}
    .fil1 {fill:white}
   ]]>
  </style>
 </defs>
 <g id="Capa_x0020_1">
  <metadata id="CorelCorpID_0Corel-Layer"/>
  <g id="_2895561674944">
   <path class="fil0" d="M-88.91 42.9c3.11,2.04 6.49,3.69 10.02,4.9 2.18,0.75 4.47,1.14 6.78,1.14 0.45,0 0.92,-0.01 1.38,-0.04l2.87 -0.26 0.14 2.88c0.52,10.61 -1.19,19.82 -4.78,27.09 -3.73,7.56 -9.47,13.02 -16.84,15.8l-1.92 0c-7.2,-2.63 -12.9,-7.95 -16.68,-15.6 -3.52,-7.19 -5.34,-16.48 -5.05,-27.55l0.08 -2.84 2.83 0.15c0.59,0.03 1.19,0.05 1.79,0.05 2.48,0 4.96,-0.33 7.35,-0.99 3.21,-0.94 6.23,-2.5 8.85,-4.58l1.53 -1.2 1.65 1.05z"/>
   <path class="fil1" d="M-90.39 45.24c7.43,4.7 14.14,6.94 19.91,6.41 1,20.36 -6.51,35.16 -19.84,40.17 -12.86,-4.7 -20.47,-18.98 -19.9,-40.48 6.76,0.35 13.4,-1.11 19.83,-6.1z"/>
   <path class="fil0" d="M-90.38 48.83c6.19,3.92 11.78,5.78 16.58,5.34 0.86,16.95 -5.42,29.87 -16.52,34.05 -10.72,-3.91 -17.05,-16.4 -16.58,-34.3 5.63,0.29 11.16,-0.93 16.52,-5.09l0 0z"/>
   <path class="fil1" d="M-97.13 63.13l1.22 0 0 -0.86c0,-0.01 0,-0.01 0,-0.02 0,-1.51 0.59,-2.97 1.64,-4.06 1.02,-1.1 2.46,-1.72 3.96,-1.72 1.5,0 2.93,0.62 3.96,1.72 1.05,1.09 1.63,2.55 1.63,4.07 0,0 0,0.01 0,0.01l0 0.86 1.22 0c0,0 0,0 0,0 0.5,0 0.91,0.4 0.91,0.91l0 11.51c0,0.5 -0.41,0.91 -0.91,0.91 0,0 0,0 0,0l-13.63 0c-0.51,0 -0.92,-0.41 -0.92,-0.91l0 -11.51c0,-0.51 0.41,-0.91 0.92,-0.91l0 0zm4.97 6.48c0.23,0.19 0.45,0.4 0.65,0.62 0.61,-0.97 1.29,-1.91 2.02,-2.79 2,-2.42 1.1,-1.96 3.88,-1.96l-0.39 0.43c-0.94,1.07 -1.81,2.22 -2.57,3.42 -0.96,1.39 -1.84,2.84 -2.63,4.34l-0.24 0.46 -0.22 -0.47c-0.4,-0.85 -0.89,-1.66 -1.48,-2.39 -0.53,-0.67 -1.17,-1.25 -1.89,-1.72 0.37,-1.18 2.09,-0.58 2.86,0.08l0.01 -0.02zm-2.04 -6.48l7.74 0 0 -0.86c0,0 0,-0.01 0,-0.01 0,-1.07 -0.41,-2.1 -1.14,-2.87 -0.71,-0.75 -1.69,-1.18 -2.72,-1.18 -1.04,0 -2.02,0.43 -2.72,1.18 -0.74,0.77 -1.16,1.81 -1.16,2.87 0,0.01 0,0.01 0,0.01l0 0.86 0 0z"/>
  </g>
  <g id="_2895561672704">
   <g>
    <path class="fil0" d="M40.78 13.17l9.76 0c2.91,0 2.23,-0.35 3.87,2.08l8.22 12.15c1.72,2.54 1.74,1.99 1.74,5.04l0 10.05c0,3.25 -2.66,5.91 -5.92,5.91l-1.2 0c0.1,-0.52 0.16,-1.06 0.16,-1.62 0,-4.64 -3.76,-8.4 -8.41,-8.4 -4.64,0 -8.4,3.76 -8.4,8.4 0,0.56 0.05,1.1 0.16,1.62l-10.63 0c0.1,-0.52 0.15,-1.06 0.15,-1.62 0,-4.64 -3.76,-8.4 -8.4,-8.4 -4.64,0 -8.4,3.76 -8.4,8.4 0,0.56 0.05,1.1 0.15,1.62l-1.4 0c-2.99,0 -5.44,-2.44 -5.44,-5.44l0 -8.78 33.99 0 0 -21.01 0 0zm8.22 27.01c3.64,0 6.6,2.95 6.6,6.6 0,3.65 -2.96,6.6 -6.6,6.6 -3.65,0 -6.61,-2.95 -6.61,-6.6 0,-3.65 2.96,-6.6 6.61,-6.6l0 0zm-27.13 0c3.65,0 6.61,2.95 6.61,6.6 0,3.65 -2.96,6.6 -6.61,6.6 -3.64,0 -6.6,-2.95 -6.6,-6.6 0,-3.65 2.96,-6.6 6.6,-6.6l0 0zm0 4.64c1.08,0 1.96,0.88 1.96,1.96 0,1.08 -0.87,1.95 -1.96,1.95 -1.08,0 -1.95,-0.88 -1.95,-1.95 0,-1.08 0.88,-1.96 1.95,-1.96l0 0zm27.13 -0.04c1.1,0 2,0.9 2,2 0,1.11 -0.9,2.01 -2,2.01 -1.11,0 -2.01,-0.9 -2.01,-2.01 0,-1.11 0.9,-2 2.01,-2l0 0zm-2.55 -26.84l1.88 0 8.02 11.17 0 3.25c0,0.79 -0.65,1.43 -1.44,1.43l-8.46 0c-0.81,0 -1.46,-0.66 -1.46,-1.46l0 -12.92c-0.01,-0.81 0.65,-1.47 1.46,-1.47l0 0zm-44.11 -17.11l33.98 0c1.63,0 2.97,1.33 2.97,2.96l0 25.87c0,1.63 -1.34,2.97 -2.97,2.97l-33.98 0c-1.63,0 -2.97,-1.34 -2.97,-2.97l0 -25.87c0,-1.63 1.34,-2.96 2.97,-2.96l0 0z"/>
   </g>
  </g>
  <g id="_2895561672576">
   <g>
    <path class="fil0" d="M-103.68 -27.02l-17.91 10.89 5.09 0 13.23 -8.04 1.94 -1.18 5.6 9.22 3.26 0c0.71,0 1.35,0.29 1.81,0.75l0 0c0.47,0.47 0.76,1.11 0.76,1.81l0 30.19c0,0.71 -0.29,1.35 -0.75,1.81l0 0.01c-0.47,0.46 -1.11,0.75 -1.82,0.75l-45.05 0c-0.71,0 -1.35,-0.29 -1.82,-0.75l0 -0.01c-0.46,-0.46 -0.75,-1.1 -0.75,-1.8l0 -30.2c0,-0.7 0.29,-1.35 0.75,-1.81 0.47,-0.47 1.11,-0.75 1.82,-0.75l1.07 0 27.81 -16.9 0 0c0.35,-0.21 0.75,-0.33 1.17,-0.33 0.18,0 0.36,0.02 0.53,0.06 0.58,0.15 1.09,0.51 1.4,1.03l0 0 2.83 4.66 -0.97 0.59 0 0 0 0zm-33.89 13.17c-0.1,0.11 -0.18,0.23 -0.24,0.36l0 3.72 45.62 0 0 -3.8c0,-0.08 -0.03,-0.15 -0.08,-0.2l0 0c-0.05,-0.05 -0.13,-0.08 -0.21,-0.08l-45.04 0c-0.02,0 -0.04,0 -0.05,0l0 0zm4.31 16.72l8.15 0 0 3.05 -8.15 0 0 -3.05 0 0zm0 7.22l22.78 0 0 2.75 -22.78 0 0 -2.75 0 0zm30.04 -7.22l8.15 0 0 3.05 -8.15 0 0 -3.05 0 0zm-10.01 0l8.14 0 0 3.05 -8.14 0 0 -3.05 0 0zm-10.02 0l8.15 0 0 3.05 -8.15 0 0 -3.05 0 0zm31.06 -4.09l-45.62 0 0 17.84c0,0.09 0.03,0.16 0.08,0.21l0.01 0c0.05,0.06 0.12,0.09 0.2,0.09l45.05 0c0.07,0 0.15,-0.04 0.2,-0.09l0 0c0.06,-0.06 0.09,-0.13 0.09,-0.21l0 0 0 -17.84 -0.01 0z"/>
   </g>
  </g>
 </g>
</svg>
