<?xml version="1.0" encoding="UTF-8"?>
<!DOCTYPE svg PUBLIC "-//W3C//DTD SVG 1.1//EN" "http://www.w3.org/Graphics/SVG/1.1/DTD/svg11.dtd">
<!-- Creator: CorelDRAW 2019 (64-Bit) -->
<svg xmlns="http://www.w3.org/2000/svg" xml:space="preserve" width="45px" height="52px" version="1.1" style="shape-rendering:geometricPrecision; text-rendering:geometricPrecision; image-rendering:optimizeQuality; fill-rule:evenodd; clip-rule:evenodd"
viewBox="0 0 45 52.11"
 xmlns:xlink="http://www.w3.org/1999/xlink"
 data-name="Layer 1">
 <defs>
  <style type="text/css">
   <![CDATA[
    .fil0 {fill:#095489}
    .fil1 {fill:white}
   ]]>
  </style>
 </defs>
 <g id="Capa_x0020_1">
  <metadata id="CorelCorpID_0Corel-Layer"/>
  <g id="_2895566977232">
   <path class="fil0" d="M23.51 1.86c3.08,2.02 6.43,3.66 9.93,4.86 2.16,0.75 4.43,1.13 6.72,1.13 0.46,0 0.92,-0.01 1.37,-0.04l2.85 -0.26 0.14 2.86c0.52,10.51 -1.18,19.65 -4.74,26.86 -3.7,7.49 -9.39,12.91 -16.7,15.66l-1.9 0c-7.15,-2.61 -12.79,-7.88 -16.54,-15.47 -3.5,-7.13 -5.29,-16.33 -5.01,-27.31l0.08 -2.82 2.8 0.15c0.59,0.03 1.19,0.05 1.78,0.05 2.46,0 4.92,-0.33 7.29,-0.98 3.19,-0.93 6.17,-2.48 8.77,-4.54l1.53 -1.19 1.63 1.04z"/>
   <path class="fil1" d="M22.04 4.18c7.37,4.66 14.02,6.88 19.74,6.36 1,20.18 -6.45,34.85 -19.67,39.82 -12.75,-4.65 -20.3,-18.81 -19.74,-40.13 6.71,0.35 13.29,-1.1 19.67,-6.05z"/>
   <path class="fil0" d="M22.05 7.74c6.14,3.89 11.68,5.73 16.44,5.3 0.85,16.8 -5.38,29.61 -16.38,33.76 -10.63,-3.88 -16.91,-16.26 -16.44,-34.02 5.59,0.29 11.07,-0.91 16.38,-5.04l0 0z"/>
   <path class="fil1" d="M15.35 21.91l1.22 0 0 -0.84c0,-0.01 0,-0.02 0,-0.02 0,-1.5 0.58,-2.95 1.62,-4.03 1.02,-1.09 2.44,-1.7 3.93,-1.7 1.49,0 2.91,0.61 3.92,1.7 1.04,1.09 1.63,2.53 1.63,4.04 0,0 0,0 0,0.01l0 0.84 1.2 0c0,0 0,0 0,0 0.5,0 0.91,0.41 0.91,0.91l0 11.41c0,0.5 -0.41,0.9 -0.91,0.9 0,0 0,0 0,0l-13.52 0c-0.5,0 -0.9,-0.4 -0.9,-0.9l0 -11.41c0,-0.5 0.4,-0.91 0.9,-0.91l0 0zm4.94 6.43c0.22,0.19 0.44,0.4 0.64,0.62 0.6,-0.96 1.28,-1.9 2,-2.77 1.99,-2.4 1.09,-1.94 3.85,-1.94l-0.39 0.42c-0.93,1.07 -1.79,2.2 -2.55,3.4 -0.95,1.37 -1.82,2.81 -2.6,4.3l-0.24 0.46 -0.22 -0.47c-0.39,-0.85 -0.89,-1.65 -1.47,-2.37 -0.53,-0.67 -1.16,-1.24 -1.87,-1.7 0.36,-1.18 2.07,-0.58 2.84,0.07l0.01 -0.02zm-2.02 -6.43l7.67 0 0 -0.84c0,-0.01 0,-0.01 0,-0.01 0,-1.06 -0.41,-2.08 -1.14,-2.85 -0.69,-0.75 -1.67,-1.17 -2.7,-1.17 -1.02,0 -2,0.42 -2.69,1.17 -0.73,0.77 -1.14,1.79 -1.14,2.85 0,0 0,0.01 0,0.01l0 0.85 0 -0.01z"/>
  </g>
 </g>
</svg>
