<?xml version="1.0" encoding="UTF-8"?>
<!DOCTYPE svg PUBLIC "-//W3C//DTD SVG 1.1//EN" "http://www.w3.org/Graphics/SVG/1.1/DTD/svg11.dtd">
<!-- Creator: CorelDRAW 2019 (64-Bit) -->
<svg xmlns="http://www.w3.org/2000/svg" xml:space="preserve" width="90px" height="15px" version="1.1" style="shape-rendering:geometricPrecision; text-rendering:geometricPrecision; image-rendering:optimizeQuality; fill-rule:evenodd; clip-rule:evenodd"
viewBox="0 0 90 15"
 xmlns:xlink="http://www.w3.org/1999/xlink">
 <defs>
  <style type="text/css">
   <![CDATA[
    .fil0 {fill:#FEFEFE}
    .fil1 {fill:#095489}
   ]]>
  </style>
 </defs>
 <g id="Capa_x0020_1">
  <metadata id="CorelCorpID_0Corel-Layer"/>
  <path class="fil0" d="M4 0.5l82 0c2.2,0 4,1.8 4,4l0 7c0,2.2 -1.8,4 -4,4l-82 0c-2.2,0 -4,-1.8 -4,-4l0 -7c0,-2.2 1.8,-4 4,-4z"/>
  <path class="fil1" d="M5.13 12.99c0.09,-1.07 0.15,-1.92 0.18,-2.53 0.04,-0.85 0.09,-2 0.13,-3.46 0.04,-1.47 0.06,-2.5 0.06,-3.1 0,-0.21 0,-0.52 -0.01,-0.91 0.58,0.02 1.04,0.02 1.38,0.02 0.47,0 1.02,-0.01 1.65,-0.03 0.63,-0.02 1.17,-0.03 1.63,-0.03 0.54,0 0.93,0.01 1.16,0.05 0.3,0.04 0.57,0.12 0.8,0.23 0.23,0.11 0.42,0.25 0.57,0.42 0.17,0.19 0.3,0.43 0.4,0.7 0.11,0.31 0.16,0.65 0.16,1.01 0,0.27 -0.03,0.54 -0.09,0.79 -0.07,0.26 -0.16,0.48 -0.27,0.68 -0.12,0.2 -0.25,0.36 -0.39,0.5 -0.14,0.13 -0.28,0.23 -0.42,0.3 -0.14,0.08 -0.32,0.15 -0.55,0.22 0.23,0.05 0.41,0.1 0.55,0.15 0.14,0.06 0.29,0.15 0.45,0.28 0.15,0.12 0.3,0.28 0.42,0.48 0.13,0.19 0.22,0.41 0.29,0.65 0.06,0.24 0.09,0.5 0.09,0.77 0,0.37 -0.05,0.72 -0.16,1.04 -0.11,0.33 -0.26,0.61 -0.46,0.85 -0.16,0.2 -0.38,0.37 -0.65,0.51 -0.26,0.14 -0.53,0.24 -0.81,0.29 -0.23,0.04 -0.64,0.07 -1.23,0.09 -0.6,0.02 -1.23,0.03 -1.91,0.03l-1.71 -0.01 -1.26 0.01zm2.91 -6.1l0.92 0c0.31,0 0.52,-0.01 0.65,-0.03 0.13,-0.01 0.25,-0.04 0.37,-0.09 0.12,-0.04 0.23,-0.12 0.32,-0.22 0.09,-0.1 0.15,-0.22 0.18,-0.34 0.04,-0.13 0.06,-0.26 0.06,-0.38 0,-0.19 -0.04,-0.35 -0.11,-0.49 -0.08,-0.14 -0.2,-0.25 -0.37,-0.31 -0.17,-0.07 -0.43,-0.11 -0.77,-0.11l-1.17 0 -0.08 1.97zm-0.15 4.09l1.24 0c0.33,0 0.57,-0.02 0.73,-0.06 0.19,-0.06 0.34,-0.13 0.43,-0.22 0.11,-0.09 0.18,-0.21 0.24,-0.36 0.06,-0.15 0.09,-0.32 0.09,-0.5 0,-0.17 -0.02,-0.31 -0.07,-0.43 -0.05,-0.12 -0.12,-0.22 -0.22,-0.31 -0.09,-0.08 -0.21,-0.14 -0.34,-0.18 -0.14,-0.03 -0.36,-0.05 -0.65,-0.05l-1.37 0 -0.08 2.11zm6.72 2.01c0.25,-3.92 0.38,-6.94 0.38,-9.05l-0.01 -0.95c0.76,0.01 1.27,0.02 1.53,0.02 0.12,0 0.58,-0.01 1.4,-0.02 -0.08,1.1 -0.14,2.14 -0.19,3.12 -0.06,1.37 -0.11,2.65 -0.13,3.84 -0.03,1.19 -0.04,2.2 -0.04,3.04l-1.34 -0.01c-0.26,0 -0.79,0 -1.6,0.01zm12.24 -2.43c-0.05,0.29 -0.11,0.69 -0.19,1.2 -0.07,0.51 -0.12,0.91 -0.14,1.19 -0.93,0.16 -1.76,0.24 -2.49,0.24 -0.71,0 -1.36,-0.1 -1.97,-0.3 -0.61,-0.2 -1.16,-0.52 -1.67,-0.97 -0.51,-0.46 -0.87,-0.99 -1.09,-1.6 -0.21,-0.61 -0.32,-1.29 -0.32,-2.05 0,-0.88 0.14,-1.68 0.44,-2.38 0.29,-0.71 0.71,-1.3 1.27,-1.77 0.54,-0.47 1.15,-0.8 1.8,-1 0.66,-0.21 1.34,-0.31 2.04,-0.31 0.64,0 1.44,0.1 2.39,0.29l0.01 0.61c0.01,0.26 0.02,0.56 0.04,0.88l0.04 0.83c-0.51,-0.14 -0.92,-0.23 -1.23,-0.27 -0.32,-0.05 -0.61,-0.08 -0.88,-0.08 -0.59,0 -1.12,0.14 -1.59,0.4 -0.47,0.26 -0.84,0.65 -1.11,1.15 -0.27,0.5 -0.4,1.06 -0.4,1.67 0,0.55 0.11,1.03 0.34,1.43 0.22,0.4 0.53,0.7 0.91,0.92 0.39,0.22 0.86,0.33 1.43,0.33 0.31,0 0.64,-0.03 1.01,-0.09 0.36,-0.05 0.81,-0.16 1.36,-0.32zm1.29 2.43c0.25,-3.92 0.38,-6.94 0.38,-9.05l-0.01 -0.95c0.76,0.01 1.27,0.02 1.53,0.02 0.12,0 0.58,-0.01 1.4,-0.02 -0.08,1.1 -0.14,2.14 -0.19,3.12 -0.06,1.37 -0.11,2.65 -0.13,3.84 -0.03,1.19 -0.04,2.2 -0.04,3.04l-1.34 -0.01c-0.26,0 -0.79,0 -1.6,0.01zm6.52 0c0.21,-2.37 0.34,-4.99 0.38,-7.84l-2.78 0.07 0.03 -0.8c0.02,-0.44 0.04,-0.91 0.04,-1.43 1.24,0.01 2.68,0.02 4.33,0.02l1.61 -0.01 1.57 0 0.85 -0.01 -0.04 0.72c-0.02,0.38 -0.03,0.7 -0.04,0.95 -0.01,0.25 -0.01,0.44 -0.01,0.56 -0.93,-0.05 -1.7,-0.07 -2.3,-0.07l-0.46 0c-0.07,0.86 -0.11,1.66 -0.15,2.39 -0.05,1.05 -0.09,2.07 -0.11,3.05 -0.03,0.99 -0.04,1.79 -0.04,2.4 -0.72,-0.01 -1.17,-0.01 -1.38,-0.01 -0.19,0 -0.69,0 -1.5,0.01zm6.53 0c0.25,-3.92 0.38,-6.94 0.38,-9.05l0 -0.95c0.76,0.01 1.26,0.02 1.52,0.02 0.12,0 0.59,-0.01 1.4,-0.02 -0.08,1.1 -0.14,2.14 -0.19,3.12 -0.06,1.37 -0.1,2.65 -0.13,3.84 -0.03,1.19 -0.04,2.2 -0.04,3.04l-1.34 -0.01c-0.26,0 -0.79,0 -1.6,0.01zm4.53 0c0.11,-1.26 0.19,-2.31 0.24,-3.17 0.05,-0.84 0.1,-1.97 0.15,-3.38 0.05,-1.41 0.08,-2.35 0.08,-2.8l-0.01 -0.65c1.03,0.01 2.27,0.02 3.73,0.02 1.34,0 2.52,-0.01 3.55,-0.02l-0.01 0.24c-0.01,0.06 -0.02,0.27 -0.03,0.64l-0.04 0.8c-0.01,0.17 -0.02,0.34 -0.02,0.52 -0.83,-0.04 -1.54,-0.06 -2.11,-0.06 -0.62,0 -1.05,0 -1.27,0 -0.22,0 -0.56,0.02 -1.02,0.03l-0.08 1.68c0.51,0.02 1.11,0.03 1.79,0.03 0.25,0 0.9,-0.02 1.95,-0.06 -0.05,0.63 -0.09,1.37 -0.13,2.24 -0.75,-0.01 -1.33,-0.02 -1.73,-0.02 -0.6,0 -1.28,0.02 -2.02,0.05l-0.08 1.78 0.75 0c0.22,0 0.68,-0.01 1.37,-0.02l1.36 -0.04c0.2,0 0.53,-0.02 1,-0.06 -0.05,0.73 -0.1,1.48 -0.13,2.25 -1.06,-0.01 -2.22,-0.01 -3.49,-0.01l-2.87 0 -0.93 0.01zm8.83 0l0.12 -1.54 0.26 -5.21 0.07 -2.11 0 -1.14c0.68,0.01 1.27,0.02 1.79,0.02 0.37,0 0.89,-0.01 1.56,-0.02l2.8 5.69 0.39 0.84c0.05,-0.82 0.09,-1.98 0.14,-3.46 0.04,-1.48 0.07,-2.5 0.07,-3.07 0.53,0.01 0.96,0.02 1.29,0.02 0.14,0 0.57,-0.01 1.28,-0.02l-0.16 2.18 -0.29 6.07 -0.03 1.75c-0.57,-0.01 -1.1,-0.01 -1.59,-0.01 -0.42,0 -0.98,0 -1.71,0.01 -0.22,-0.48 -0.39,-0.83 -0.5,-1.04l-1.09 -2.09c-0.37,-0.68 -0.7,-1.34 -1,-1.96 -0.21,-0.4 -0.41,-0.84 -0.62,-1.31l-0.14 3.47 -0.06 2.93c-0.54,-0.01 -0.95,-0.01 -1.24,-0.01 -0.24,0 -0.69,0 -1.34,0.01zm10.98 0c0.1,-1.11 0.16,-2 0.2,-2.67 0.05,-1 0.11,-2.29 0.16,-3.87 0.04,-1.21 0.06,-2.08 0.06,-2.6l0 -0.86c0.51,0.02 0.94,0.02 1.31,0.02 0.36,0 0.83,-0.01 1.41,-0.03 0.57,-0.02 1.12,-0.03 1.62,-0.03 0.59,0 1.1,0.04 1.53,0.11 0.44,0.08 0.85,0.24 1.23,0.49 0.38,0.24 0.7,0.56 0.96,0.96 0.25,0.39 0.45,0.85 0.58,1.38 0.14,0.54 0.2,1.08 0.2,1.64 0,0.56 -0.05,1.09 -0.15,1.6 -0.11,0.51 -0.25,0.97 -0.44,1.38 -0.19,0.41 -0.4,0.76 -0.65,1.06 -0.25,0.29 -0.54,0.54 -0.86,0.75 -0.24,0.16 -0.48,0.28 -0.72,0.37 -0.25,0.09 -0.58,0.16 -1,0.21 -0.47,0.06 -1,0.09 -1.6,0.09l-2.63 -0.02c-0.25,0 -0.65,0.01 -1.21,0.02zm2.82 -2.2c0.24,0.02 0.49,0.03 0.75,0.03 0.44,0 0.84,-0.05 1.19,-0.14 0.35,-0.08 0.65,-0.27 0.91,-0.56 0.26,-0.29 0.46,-0.66 0.58,-1.11 0.13,-0.45 0.19,-0.91 0.19,-1.39 0,-0.58 -0.09,-1.07 -0.28,-1.47 -0.18,-0.39 -0.43,-0.67 -0.74,-0.83 -0.31,-0.15 -0.73,-0.23 -1.27,-0.23 -0.31,0 -0.68,0.01 -1.1,0.04l-0.23 5.66zm6.33 2.2l0.54 -1.05 3.37 -7.14 0.36 -0.8c0.11,-0.23 0.25,-0.57 0.44,-1.01 0.77,0.01 1.33,0.02 1.68,0.02 0.61,0 1.18,-0.01 1.7,-0.02l0.95 3.06 1.94 5.87 0.38 1.07c-0.75,-0.01 -1.21,-0.01 -1.37,-0.01 -0.36,0 -0.9,0 -1.61,0.01 -0.19,-0.81 -0.47,-1.76 -0.83,-2.85l-3.29 0c-0.37,0.86 -0.76,1.81 -1.17,2.85 -0.81,-0.01 -1.3,-0.01 -1.49,-0.01 -0.33,0 -0.86,0 -1.6,0.01zm5.05 -4.98l2.03 0c-0.51,-1.72 -0.78,-2.67 -0.83,-2.84 -0.29,0.71 -0.53,1.3 -0.73,1.76l-0.47 1.08z"/>
 </g>
</svg>
