<?xml version="1.0" encoding="UTF-8"?>
<!DOCTYPE svg PUBLIC "-//W3C//DTD SVG 1.1//EN" "http://www.w3.org/Graphics/SVG/1.1/DTD/svg11.dtd">
<!-- Creator: CorelDRAW 2019 (64-Bit) -->
<svg xmlns="http://www.w3.org/2000/svg" xml:space="preserve" width="50px" height="52px" version="1.1" style="shape-rendering:geometricPrecision; text-rendering:geometricPrecision; image-rendering:optimizeQuality; fill-rule:evenodd; clip-rule:evenodd"
viewBox="0 0 50 52.35"
 xmlns:xlink="http://www.w3.org/1999/xlink"
 data-name="Layer 1">
 <defs>
  <style type="text/css">
   <![CDATA[
    .fil0 {fill:#095489}
   ]]>
  </style>
 </defs>
 <g id="Capa_x0020_1">
  <metadata id="CorelCorpID_0Corel-Layer"/>
  <g id="_2895468886336">
   <g>
    <path class="fil0" d="M36.27 7.14l-17.84 10.85 5.07 0 13.18 -8.01 1.93 -1.17 5.58 9.18 3.25 0c0.7,0 1.34,0.29 1.81,0.75l0 0c0.46,0.46 0.75,1.1 0.75,1.8l0 30.08c0,0.7 -0.29,1.34 -0.75,1.8l0 0c-0.46,0.47 -1.1,0.75 -1.81,0.75l-44.88 0c-0.7,0 -1.34,-0.28 -1.81,-0.75l0 0c-0.46,-0.46 -0.75,-1.1 -0.75,-1.8l0 -30.08c0,-0.7 0.29,-1.34 0.75,-1.8 0.46,-0.47 1.1,-0.75 1.81,-0.75l1.06 0 27.71 -16.84 0 0c0.35,-0.21 0.75,-0.32 1.16,-0.32 0.18,0 0.36,0.02 0.54,0.06 0.58,0.14 1.08,0.51 1.39,1.02l0 0 2.82 4.65 -0.97 0.58 0 0 0 0zm-33.76 13.12c-0.1,0.11 -0.18,0.23 -0.24,0.36l0 3.7 45.45 0 0 -3.78c0,-0.08 -0.03,-0.15 -0.08,-0.2l0 0c-0.06,-0.05 -0.13,-0.08 -0.21,-0.08l-44.87 0c-0.02,0 -0.03,0 -0.05,0l0 0zm4.3 16.66l8.11 0 0 3.03 -8.11 0 0 -3.03 0 0zm0 7.19l22.68 0 0 2.74 -22.68 0 0 -2.74 0 0zm29.92 -7.19l8.12 0 0 3.03 -8.12 0 0 -3.03 0 0zm-9.97 0l8.11 0 0 3.03 -8.11 0 0 -3.03 0 0zm-9.98 0l8.12 0 0 3.03 -8.12 0 0 -3.03 0 0zm30.94 -4.08l-45.45 0 0 17.78c0,0.08 0.03,0.15 0.09,0.2l0 0c0.06,0.06 0.13,0.09 0.2,0.09l44.88 0c0.07,0 0.14,-0.04 0.2,-0.09l0 0c0.06,-0.05 0.09,-0.13 0.09,-0.2l0 0 0 -17.78 -0.01 0z"/>
   </g>
  </g>
 </g>
</svg>
